<svg
   viewBox="0 0 640 512"
   version="1.1"
   id="svg1"
   xml:space="preserve"
   width="640"
   height="512"
   xmlns:xlink="http://www.w3.org/1999/xlink"
   xmlns="http://www.w3.org/2000/svg"
   xmlns:svg="http://www.w3.org/2000/svg"><defs
     id="defs1" /><!--!Font Awesome Free 6.7.2 by @fontawesome - https://fontawesome.com License - https://fontawesome.com/license/free Copyright 2025 Fonticons, Inc.--><path
     fill="#1a2741"
     d="m 211.8,0 c 7.8,0 14.3,5.7 16.7,13.2 C 240.8,51.9 277.1,80 320,80 362.9,80 399.2,51.9 411.5,13.2 413.9,5.7 420.4,0 428.2,0 h 12.6 c 22.5,0 44.2,7.9 61.5,22.3 l 126.2,105.1 c 6.6,5.5 10.7,13.5 11.4,22.1 0.7,8.6 -2.1,17.1 -7.8,23.6 l -56,64 c -11.4,13.1 -31.2,14.6 -44.6,3.5 L 480,197.7 V 448 c 0,35.3 -28.7,64 -64,64 H 224 c -35.3,0 -64,-28.7 -64,-64 V 197.7 l -51.5,42.9 c -13.3,11.1 -33.1,9.6 -44.6,-3.5 l -56,-64 c -5.7,-6.5 -8.5,-15 -7.8,-23.6 0.7,-8.6 4.8,-16.6 11.4,-22.1 L 137.7,22.3 C 155,7.9 176.7,0 199.2,0 Z"
     id="path1" /><a
     id="a1"
     xlink:href="#a1"
     transform="matrix(1.294405,0,0,1.294405,-94.211072,-80.66697)"><path
       fill="#ff0000"
       d="m 470.605,168.6 c 12.5,-12.5 12.5,-32.8 0,-45.3 -12.5,-12.5 -32.8,-12.5 -45.3,0 l -105.3,105.4 -105.4,-105.3 c -12.5,-12.5 -32.8,-12.5 -45.3,0 -12.5,12.5 -12.5,32.8 0,45.3 l 105.4,105.3 -105.3,105.4 c -12.5,12.5 -12.5,32.8 0,45.3 12.5,12.5 32.8,12.5 45.3,0 l 105.3,-105.4 105.4,105.3 c 12.5,12.5 32.8,12.5 45.3,0 12.5,-12.5 12.5,-32.8 0,-45.3 L 365.305,274 Z"
       id="path1-5" /></a></svg>
