<svg xmlns="http://www.w3.org/2000/svg" xmlns:xlink="http://www.w3.org/1999/xlink" xml:space="preserve" viewBox="0 0 640 512"><!--!Font Awesome Free 6.7.2 by @fontawesome - https://fontawesome.com License - https://fontawesome.com/license/free Copyright 2025 Fonticons, Inc.--><path fill="#1a2741" d="M211.8 0c7.8 0 14.3 5.7 16.7 13.2a96 96 0 0 0 183 0C413.9 5.7 420.4 0 428.2 0h12.6a96 96 0 0 1 61.5 22.3l126.2 105.1a32.2 32.2 0 0 1 3.6 45.7l-56 64a32 32 0 0 1-44.6 3.5L480 197.7V448a64 64 0 0 1-64 64H224a64 64 0 0 1-64-64V197.7l-51.5 42.9a32 32 0 0 1-44.6-3.5l-56-64a31.8 31.8 0 0 1 3.6-45.7L137.7 22.3A96 96 0 0 1 199.2 0Z"/><g transform="translate(-94.2 -80.7) scale(1.294)"><path fill="red" d="M470.6 168.6a32 32 0 0 0-45.3-45.3L320 228.7 214.6 123.4a32 32 0 0 0-45.3 45.3L274.7 274 169.4 379.4a32 32 0 0 0 45.3 45.3L320 319.3l105.4 105.3a32 32 0 0 0 45.3-45.3L365.3 274Z"/></g></svg>
