<svg xmlns="http://www.w3.org/2000/svg" viewBox="0 0 122.8 122.8"><defs><clipPath id="a" clipPathUnits="userSpaceOnUse"><path d="M-46.05-92.1h92.1V0h-92.1Z"/></clipPath><clipPath id="b" clipPathUnits="userSpaceOnUse"><path d="M-46.05-2.81h92.1v92.1h-92.1Z"/></clipPath><clipPath id="c" clipPathUnits="userSpaceOnUse"><path d="M-46.05-89.85h92.1v92.1h-92.1Z"/></clipPath><clipPath id="d" clipPathUnits="userSpaceOnUse"><path d="M-67.37-76.14h92.1v92.1h-92.1Z"/></clipPath><clipPath id="e" clipPathUnits="userSpaceOnUse"><path d="M-64.62-58.84h92.1v92.1h-92.1Z"/></clipPath><clipPath id="f" clipPathUnits="userSpaceOnUse"><path d="M-66-74.77h92.1v92.1H-66Z"/></clipPath></defs><path fill="#e24301" d="M0 0a45.75 45.75 0 0 1-32.56-13.49 45.74 45.74 0 0 1-13.49-32.56c0-12.3 4.79-23.86 13.49-32.56A45.75 45.75 0 0 1 0-92.1c12.3 0 23.86 4.8 32.56 13.49a45.75 45.75 0 0 1 13.49 32.56c0 12.3-4.8 23.86-13.49 32.56A45.75 45.75 0 0 1 0 0m0-3.37a42.68 42.68 0 1 0 0-85.35A42.68 42.68 0 0 0 0-3.37" clip-path="url(#a)" transform="matrix(1.333 0 0 -1.333 61.4 0)"/><path fill="#0d2240" d="M0 0a43.29 43.29 0 0 0-43.24 43.24A43.29 43.29 0 0 0 0 86.48a43.29 43.29 0 0 0 43.24-43.24A43.29 43.29 0 0 0 0 0" clip-path="url(#b)" transform="matrix(1.333 0 0 -1.333 61.4 119.05)"/><path fill="#fff" d="M0 0c-11.7 0-22.7-4.56-30.97-12.83A43.51 43.51 0 0 1-43.8-43.8c0-11.7 4.55-22.7 12.83-30.97A43.51 43.51 0 0 1 0-87.6c11.7 0 22.7 4.55 30.97 12.83A43.51 43.51 0 0 1 43.8-43.8c0 11.7-4.55 22.7-12.83 30.97A43.52 43.52 0 0 1 0 0m0-1.12a42.68 42.68 0 1 0 0-85.36A42.68 42.68 0 0 0 0-1.12" clip-path="url(#c)" transform="matrix(1.333 0 0 -1.333 61.4 3)"/><path fill="#fff" d="M0 0h-42.63v-17.37h2.66V-42.8h-2.66v-17.38H0v20.04h-15.66v-2.66h-5.56v4.87h14.35v15.69h-14.35v4.87h5.56v-2.68H0v17.31zm-2.74-2.74V-17.3h-10.18v2.67h-11.05V-25H-9.6v-10.2h-14.36v-10.36h11.05v2.66h10.18v-14.54H-39.9v11.89h2.66v30.9h-2.66v11.9z" clip-path="url(#d)" transform="matrix(1.333 0 0 -1.333 89.82 21.28)"/><path fill="#e24301" d="M0 0v14.56h-37.15V2.67h2.67v-30.91h-2.67v-11.9H0v14.56h-10.17v-2.66h-11.05v10.35h14.35v10.2h-14.35V2.68h11.05V0Z" clip-path="url(#e)" transform="matrix(1.333 0 0 -1.333 86.16 44.35)"/><path fill="#0d2240" d="M0 0h-39.89v-14.63h2.67V-42.8h-2.67v-14.64H0v17.3h-12.92v-2.67h-8.3v7.62h14.35v12.95h-14.35v7.6h8.3v-2.66H0v15.93zm-1.37-1.37v-14.56h-10.17v2.67H-22.6v-10.35h14.35v-10.21H-22.6v-10.35h11.04v2.66h10.18v-14.55h-37.15v11.89h2.66v30.9h-2.66v11.9z" clip-path="url(#f)" transform="matrix(1.333 0 0 -1.333 88 23.11)"/></svg>