<svg xmlns="http://www.w3.org/2000/svg" viewBox="0 0 116.5 107.9"><defs><clipPath id="a" clipPathUnits="userSpaceOnUse"><path d="M-41.1 0h87.4v81h-87.4z"/></clipPath><clipPath id="b" clipPathUnits="userSpaceOnUse"><path d="M-78.5-31H8.9v81h-87.4z"/></clipPath><clipPath id="c" clipPathUnits="userSpaceOnUse"><path d="M-47.3-20H40v87.4h-87.4z"/></clipPath><clipPath id="d" clipPathUnits="userSpaceOnUse"><path d="M-42.3-22.7H45v87.4h-87.3z"/></clipPath><clipPath id="e" clipPathUnits="userSpaceOnUse"><path d="M-51.5-20.5h87.4V67h-87.4z"/></clipPath><clipPath id="f" clipPathUnits="userSpaceOnUse"><path d="M-50-42.9h87.5v87.4H-50z"/></clipPath><clipPath id="g" clipPathUnits="userSpaceOnUse"><path d="M-47.4-26.3H40v87.4h-87.4z"/></clipPath><clipPath id="h" clipPathUnits="userSpaceOnUse"><path d="M-26-22h87.3v87.5H-26z"/></clipPath><clipPath id="i" clipPathUnits="userSpaceOnUse"><path d="M-55.2-59h87.4v87.4h-87.4z"/></clipPath><clipPath id="j" clipPathUnits="userSpaceOnUse"><path d="M-48.1-57.1h87.3v87.4H-48z"/></clipPath><clipPath id="k" clipPathUnits="userSpaceOnUse"><path d="M-36.2-19h87.4v87.4h-87.4z"/></clipPath><clipPath id="l" clipPathUnits="userSpaceOnUse"><path d="M-54.3-18.8h87.4v87.4h-87.4z"/></clipPath><clipPath id="m" clipPathUnits="userSpaceOnUse"><path d="M-48.3-52.5h87.4v87.4h-87.4z"/></clipPath><clipPath id="n" clipPathUnits="userSpaceOnUse"><path d="M-26.5-45.6h87.4v87.4h-87.4z"/></clipPath><clipPath id="o" clipPathUnits="userSpaceOnUse"><path d="M-27.6-22.5h87.4V65h-87.4z"/></clipPath><clipPath id="p" clipPathUnits="userSpaceOnUse"><path d="M-74.6-28.4h87.4V59h-87.4z"/></clipPath><clipPath id="q" clipPathUnits="userSpaceOnUse"><path d="M-50.8-18h87.4v87.3h-87.4z"/></clipPath><clipPath id="r" clipPathUnits="userSpaceOnUse"><path d="M-32.8-58.8h87.4v87.4h-87.4z"/></clipPath><clipPath id="s" clipPathUnits="userSpaceOnUse"><path d="M-50.6-42.7h87.4v87.4h-87.4z"/></clipPath><clipPath id="t" clipPathUnits="userSpaceOnUse"><path d="M-35.4-41.1H52v87.4h-87.4z"/></clipPath><clipPath id="u" clipPathUnits="userSpaceOnUse"><path d="M-76-79.1h87.4V8.2h-87.3z"/></clipPath></defs><path fill="#fff" d="M0 0h-.3l-.6.2.4.4s.4.4.3.8c0 .3-.3.6-.8 1-.9.4-1.3 1.1-1.4 1.8-1-1-2-1.5-2.8-1.5-.4 0-.6.2-.7.3-.4.6-.3 2.5-.3 3a9 9 0 0 1 0 1.7l-.3-.9c-.2-.8-.6-1.2-1-1.2-.5 0-.8.6-1 2.1-.2.6-.7 1.1-1.1 1.7-.6.6-1.1 1.2-1.1 1.9-.8-.1-1.6-.3-1.6-1.2 0-1-.4-1.1-.7-1.1-.3 0-.7.1-1.5 1.2-1 1.4-2.4 4.3-2.5 5.7-.5 0-1 0-1.3-.4-.4-.4-.5-1.2-.4-2.3v-.6l-.6.3a7.7 7.7 0 0 0-3.3 4.7c-1-.1-2.2-1.2-2.5-1.7l-.3-.3-.3.3c-.8 1.1 0 4.6.4 6a14 14 0 0 0-4.5-.9l-.9.1h-.1v.2c-.4.5-.4 1.7.2 2.9a14 14 0 0 1-1.2-.5l-.5-.2v.6c.2 1 1.5 2.3 2.6 3.3-5.8.6-6 3-6.1 3.2v.4h.4a6.6 6.6 0 0 1 3 .3c-.5 0-.8-.2-.8-.2h-.2l-.2.1a2 2 0 0 0-.4 1.3c0 .4.3.8.5 1-5.2.3-6 1.4-6 1.6l-.3.6h.6l1.3-.2c2.9 0 4.7 1 5.6 1.6l-3 .6c-1.7.4-2 .6-2 1s.6.5.9.5c1.2.2 2.8 1.2 3.6 1.8-4.6.6-7.8 3-8 3l-.3.3.4.3c.5.3 1 .4 1.8.4 1 0 2-.2 2-.3h1.5c1 0 1 .1 1 .2.1.1-.2.6-.7 1.1-1 .8-3.2 1.6-3.2 1.6l-.5.2.3.4c.6.7 1.7 1 3.2 1a17 17 0 0 0 3.4-.4 9 9 0 0 0-1.6 3.6c-.9.4-1.9 1-2.1 1.8a1 1 0 0 0 0 1c.5 1 1 2 1.4 2.5h-.1a10.6 10.6 0 0 1-1 0l-.4.2c0 .3.1.5.5 1 .2.1.5.5.5.7v.3l-.6.2c-.4 0-.5.2-.6.3-.2.4.1 1.1.8 2.1h.1l-.1.2c-.1.3 0 .6.2.8l.4.7c0 .3.2 1.8.8 2.5l.4.6-.8-.3-.4.3c-.2.3 0 .9.7 2.2l.8 2-1.2 3.3c-.3 2.5-3.7 5.5-3.7 5.5l-.7.6h4.5l1-.1c1.5 0 3.2 0 4.7-.8a98 98 0 0 1 9-4.7c1.5-.7 2.7-.8 3.6-1 .9 0 1.6-.1 2.2-.6.4.6 1.1 1.7 1.5 1.7h.4V75c-.1-.8.3-1 1-1.5.4-.3.9-.7 1.2-1.3l.2.3c0 .5-1.2 1.2-1.6 1.5-.4.2-.6.3-.5.6v.2h.2a7.4 7.4 0 0 0 4.3-.2l-1.2.7c-.2.1-.2.3-.2.4 0 .3.3.4 1.2.4.6 0 3.2 0 5.2-1v.7c0 .2.2.2.4.2s.6 0 3-1.6l.4.5c.4.4.6.6.8.6l.3-.1c.2-.2.2-.4.2-1.1a19 19 0 0 0 5.2 2.3c.3 0 .4-.2.5-.3.1-.3-.2-.6-.7-1.3l-.5-.6c1.2.9 2.9 1.7 4.8 1.7l.2-.6-1.6-1a8.5 8.5 0 0 0 4 .6l.7-.2-.5-.4c-.7-.7-1-1.1-1-1.3.6 0 2.3 1 3 2l.6.3c.1 0 .3 0 .3-.2.3-.4-.2-1.9-.6-2.7.4 0 1 .2 1.7 1.2a5 5 0 0 0 4.1 1.8c1.2 0 2.2-.3 2.5-.5l.4-.2-.3-.3c-.6-.6-.6-1-.6-1.2v-.2l.2.1c2.2 2.7 3.2 2.7 4.7 2.8l.8.1c5.2 3.7 8.8 3.9 9.5 3.9h.6c2.6 0 4.2-1.4 4.3-1.4l.2-.3-.2-.2a17 17 0 0 1-2.5-3.5c-.2-1.6-1.2-3-1.8-3.6L40 69.4c-.2-.5-.2-.6-.1-.8l.2-.5c.1-.6-.1-1-.4-1.5-.3-.5-.6-1-.4-1.8l.2-1.3.2-.5.8-1.8c.6-1.1 1-2 .7-2.5 0-.1-.3-.3-.7-.3H40c-.2-.3-.2-1.7 0-2.2l.3.6c.3.3.4.5.6.5l.4-.1c1.2-1.8-3.3-6.5-3.3-6.5l-.6-.7.2-.1c.6 0 2.6 1.6 3.9 2.7l.4.4.1-.6c.3-1.3-.4-3.3-.8-4.3 2.1-.1 3.6-.7 4.2-1.6.6-.9.4-1.6.4-1.7v-.3h-.4c-.7.2-1.4.2-2 .2-1.4 0-2.4-.2-3.5-.4h-.3c-1-.3-1.3-.6-1.3-.7 0-.2.6-.6 1.6-.6h.3l4.4.7h.4v-.4c-.2-1.8-2.9-3.9-4-4.3l1.4-1h.1v-.2l-.1-.6a1 1 0 0 0-.6-.3l1.4-.5a6.5 6.5 0 0 1 2.4-.7l.8.2-.5-.7a8.5 8.5 0 0 0-7.8-4.6c1-1.2 2.6-1.4 3.9-1.4 1.2 0 2.1.2 2.1.2l.6.1-.2-.5a6 6 0 0 0-6.4-4.1c.1-3.3-.7-4.8-1.4-5.6-.4-.4-.8-.6-1-.6-.3 0-.4.2-.5.3-.2 1.7-2.8 3.2-4.2 3.2a1 1 0 0 1-.5-.1c-.2-.1-.3-.3-.3-.4l.3-.3c1.9-1.3 3-2.6 3.2-3.9.3-1-.2-1.8-.3-1.8l-.2-.4-.3.4c-.5.7-1 1-1.6 1l-.6-.1a3 3 0 0 0-.5 0c-.8 0-1.7.2-2.2.5 0-1.4 0-3.8-.3-4.3-.1-.3-.3-.3-.4-.3-.4 0-.6.4-1 1.4l-1 2c-.4.8-.7 1-.9 1v-.6c.6-1 .7-2.8.5-3.5a.5.5 0 0 0-.5-.3c-.3 0-.8.4-2 1.3-.5.5-1.5 1.2-1.9 1.3v-1.5l-.1-3c-.1-.3-.3-.4-.4-.4-.4 0-.5.4-.8 1 0 .4-.4 1.2-.5 1.3h-.2l-.7-1.6c0-.4-.2-.7-.4-1v-.1s-1-2.1-2.8-2.5h-.1c-.2 0-.3 0-.9.9l.1-.7c.2-1.6-1-2.5-1.5-2.8l-.4-.1-.1.4c-.3 1-.6 1-.7 1h-.4a1 1 0 0 1-.5-.4A7 7 0 0 1 9.6 3v-.2h-.2a1 1 0 0 0-.4-.1c-.6 0-1.1.5-1.4.8l-.2.2-.3.2c.1-.7 0-1.3-.3-1.8L6.5 2c-.3 0-.5.2-1 .7l.1-.2C6 1.2 6 1 5.6.8h-.2c-.6 0-1.2.5-2.2 1.3l-.7.5C2 .3.5 0 0 0" clip-path="url(#a)" transform="matrix(1.333 0 0 -1.333 54.8 108)"/><path fill="#0d2240" d="M0 0s5-1 8.1 4.4c0 0-.6-.2-2.6.7-2 .8-3 .7-4.3 1l1.4.2c2.3-.5 2.1.5 2.1.5S2.3 8 3.2 8.3c.9.2 3.8 2.3 4 4l-4.4-.6C.8 11.5-1 13 2 13.6c1.9.4 3.3.7 6 .3 0 0 .7 2.7-4.8 3 0 0 1.4 2.9 1 4.4 0 0-3.2-2.9-4.1-2.7-1 .2-.6.7.1 1.4.8.7 4.2 4.7 3.3 6-.2.2-.9-1.6-1.3-1-.4.4-.3 3 .3 2.9 2.4-.7.2 2-.5 4l-.5 1.9c-.2 1.5 1 2.3.8 3.2-.1.7-.4.7 0 1.6l1.1 1.7c.6.7 1.6 2 1.7 3.5 0 .4 2.8 3.6 2.8 3.6S6 49 3.3 48.8c0 0-3.7.2-9.5-4-2.2-.1-2.9.3-5.4-2.7-.7-.8-1.3.5 0 1.7-.6.4-4.2 1.4-6.2-1.2-1.4-1.8-2.2-1-2.5-1.3.7 1.5 1.2 3.5.6 2.7-1.6-2-5.9-3.4-2.6-.3 0 0-2.6.5-5.2-1.2 0 1 2.6 2.3 2.6 2.3A9.7 9.7 0 0 1-31 42c.6 2.2 6 5.6-3 1l-.6-.3c.1 2.3 0 1.6-1.3.3-1.2.8-4.1 2.8-2.8 1 0 0 .3-.6 0-.5a12.8 12.8 0 0 1-6.6 1.2c2.3-1.3 1.8-2 1.8-2-2.1 1.6-5 .8-5 .8 0-.1 3.5-1.7 1.5-2.7-.6 1.6-2.6 1.5-2.5 3.2-.1 0-1-1-1.4-1.8-1.2 1.3-2.8.4-6 1.8a100 100 0 0 0-9 4.7c-1.8 1-4 .7-5.6.8h-3.6s3.5-3 3.9-5.6l1.2-3.3c-.3-1.6-2.8-5.2-.9-3.9.4.2.9-.5 0-1.3-.6-.5-.7-2.2-.7-2.2-.1-.7-1-1.3-.4-1.3v-.4c-.1-.2-1.7-2-.7-2s1-.7 1-1c-.1-.5-1.5-1.6-1-1.5 1.5.1 1.6 0 1.6 0s-.9-1.3-1.6-2.9c-.5-1 1-2 2-2.4.3-2 1.6-4 2.5-4.5 0 0-5.8 1.7-7.4-.2 0 0 2.3-.9 3.3-1.7 1-.8 2.1-2.5-2-1.9 0 0-2.3.7-3.6 0 0 0 3.6-2.7 8.6-3 0 0-2.6-2.2-4.5-2.5-1.8-.2 1.3-1 4.9-1.5 0 0-2.5-2.6-7.7-2.1 0 0 .5-1.2 6.6-1.4 0 0-1.8-1.2-.7-2.4l2.7.3s-2-1.5-5-1.2c0 0 .2-2.4 6.3-2.9 0 0 .2-.3-.2-.6-.9-.7-2.4-2-2.5-3 0 0 2.2 1 1.8.4-.8-1.2-.7-2.6-.5-3 0 0 2.2-.5 5.9 1 0 0-1.6-5.1-.7-6.3 0 0 1.6 1.9 3 1.7a7.5 7.5 0 0 1 3.3-4.7c-.2 3.7 1.9 2.9 2.5 3-.5-1.3 3.8-9.4 4-6 0 1.7 2.2 1.3 2.4 1.6-.8-1.3 1.7-2.5 2-4 .5-3 1.2-1.4 1.4-.8.6 2 1.2 1.8 1-1 0 0-.2-2.3.2-2.8.3-.5 2.5.1 3.5 2.1 0 0-.5-1.6 1.3-2.7 1.8-1 .5-2.2.5-2.2s2-.5 2.6 2.7c0 .5 2.5-2.3 3.2-2 .1.1-.4 2-.4 2.4 0 .4 1.3-1.4 1.4-1.2.7 1.2.1 2.3-.6 3.1l1.7-1.4c.3-.3 1-1.2 1.7-1 0 0 0 2 .4 2.8l.6.5h.4c.5.1 1 0 1.2-1.2 0 0 1.6.7 1.4 2.4l-.4 2.2 1.5-2c1.6.3 2.6 2.3 2.6 2.3l1 2.6c.2.2.4.3.7.2.6-.2 1-2.8 1.3-2 .2.6 0 4.1.1 4.6.3 1 4.1-3 4.3-2.4a5 5 0 0 1-.4 3.2c-.5.8.4 2 1.5-.1 1.1-2 1.5-3.7 1.8-3.1.3.5.2 4.6.2 4.6s1.7-1 3-.7c1.1.2 1.8 0 2.6-1 0 0 1.6 2.3-3 5.2-.5.5-.3 1 0 1.3 1.1.7 5-1 5.4-3.3 0-.2 2.5.5 2.1 6.2 0 0 4.9-.9 6.5 3.8C6.7-2 1.4-3.1 0 0" clip-path="url(#b)" transform="matrix(1.333 0 0 -1.333 104.7 66.6)"/><path fill="#e24301" d="M0 0c1.2 0 3 0 3.4-.2l-1 .6c-3 1.6-8 1.8-10.6-.6l-.2-.3c1.3 0 4-2 5.2-1.9.9 0 2.8 1.3 4.6 1.2C1.6-1.2-.4 0 0 0" clip-path="url(#c)" transform="matrix(1.333 0 0 -1.333 63.1 85.6)"/><path fill="#fff" d="M0 0c-4.2-.2-3 6.3-3 6.3-6.6-2-1.6-8.9-1.6-8.9C-4.9-.9 0 0 0 0" clip-path="url(#d)" transform="matrix(1.333 0 0 -1.333 56.5 82)"/><path fill="#fff" d="M0 0s4.6 6.5-1.4 8.6c0 0 .8-6.7-3.1-6.4 0 0 4.3-.9 4.5-2.2" clip-path="url(#e)" transform="matrix(1.333 0 0 -1.333 68.7 85)"/><path fill="#fff" d="M0 0s-4.8 2.7-10.2 0c0 0-.8-2 1.4-2.7 0 0 0 .8.6 1.4 0 0 .1-.4.9-.7l.4 1 .7-.7s.4.1.7.7c0 0 0-.5.8-.9l.8 1s.2-.6.7-1c0 0 .7.1.9.8 0 0 .8-.5 1.3-1.5 0 0 1.6.9 1 2.6" clip-path="url(#f)" transform="matrix(1.333 0 0 -1.333 66.6 55)"/><path fill="#fff" d="M0 0c0-.8-.7-1.4-.7-1.4-.4.7-.8.8-.8.8-.5-.3-.8-.8-.8-.8-.1.6-.7.9-.7.9-.6-.3-.8-1-.8-1 0 .5-.7.8-.7.8l-.6-.8c-.7.3-1 1.4-1 1.4-.6-.6-.5-2-.5-2 4.7-1.3 8 .4 8 .4C.9-.1 0 0 0 0" clip-path="url(#g)" transform="matrix(1.333 0 0 -1.333 63.2 77.2)"/><path fill="#e24301" d="M0 0c-.2-.3 0 0 0 0" clip-path="url(#h)" transform="matrix(1.333 0 0 -1.333 34.8 83)"/><path fill="#fff" d="m0 0 .4-.4c.6-.7 1-1.5 1.2-2 .5.3.5 1.4.6 2.1h.2c1-.7 1.9-.8 2.5-3.1 0 0 2.2-.8 2.9-1.6.1-.2.2-.3.3-.2l.1.2c.2.8-.4 3.8-1 4.7l-.4.4a6.4 6.4 0 0 1-6 2.1H.7a5.2 5.2 0 0 1-1.9-.9 3.4 3.4 0 0 1-.6-.6l-.9-1.1L-4-2.3c1.1.2 1.8.8 2.5 1.4.4.3.7.8 1.4.8" clip-path="url(#i)" transform="matrix(1.333 0 0 -1.333 73.6 33.6)"/><path fill="#e24301" d="M0 0c-.1 0-.7 0-1 .2a6.8 6.8 0 0 1-4.2 0c-.4 0-.7-.3-1.3-.4-.6-.1-1.6-.6-1.7-.7-.4 0-.2-.3-.2-.3l1.4-.7s1.3-.6 3-.5c2.5 0 6.3 1 6.2 1.3C2.2-.7.2-.1 0 0" clip-path="url(#j)" transform="matrix(1.333 0 0 -1.333 64.2 36)"/><path fill="#e24301" d="M0 0a9.2 9.2 0 0 0-1.8 3.4l-1.2.4.8-2c-1 .4-1.8.1-1.8.1C-1.6-.3-2.1-1-2.1-1-1.6-.2 0 0 0 0" clip-path="url(#k)" transform="matrix(1.333 0 0 -1.333 48.3 87)"/><path fill="#e24301" d="M0 0c1 0 1.7-.8 1.7-.8C1.7 0 3 1.8 3 1.8 1.7.8 1.6 1 1.6 1L2 2.6C1 1.9 0 0 0 0" clip-path="url(#l)" transform="matrix(1.333 0 0 -1.333 72.3 87.1)"/><path fill="#e24301" d="M0 0c-2-1.3-2.2-1.7-2.5-3l-.3-2.5v-.7l5.2-1.5c2.9-.9 6-2.2 7.6-5 .3-.6.6-1.3.7-2 .1-.6-.9-2.6-1.1-3.2l-.3-.5 1.3 1.3a9 9 0 0 1 1 .6c1.4 1 2.6 1.6 3.2 3.2.6 1.3-1.6 3.5-2.7 4.2C11-8.4 9.5-8 8.4-7h.4l1-.3 1-.3c.3 0 .5-.2.8-.3l.7-.3 1.6-.7 1.6-1c.2.6.4 1.3.3 2 0 .2 0 .9-.6 1.9l-1.2.2-.8.2-.7.1-1.3.3h-.6l-.4.1-1 .2a26.1 26.1 0 0 0 1.4 0l.6.1h2.1l.9-.1 1-.1c0 .4-.4 2.1-.6 2.2l-.6.1c-1.7.3-3.5.2-5.3.2.5.3 1.1.3 1.6.3l2.2.1c.2 0 1.5 0 1.5.4s-.3.7-.6.8c-1 .6-2.1.6-3.2.6h-.7L8.2-.6H6.3l.9.2 2.2.6 1.5.3c.1 0 .2.1.2.3 0 .2-.3.4-.5.5l-.9.7c-.7.5-1.5.7-2.3 1-1 .2-4 .6-4.5.5-.3 0 .5 0 .6-.5 0-1-1.8-2-3.5-3" clip-path="url(#m)" transform="matrix(1.333 0 0 -1.333 64.4 42.2)"/><path fill="#e24301" d="m0 0-.2-.3-.2-.9a3.5 3.5 0 0 1-.1-2l1.5.9 1.5.7.6.3A9 9 0 0 0 6.6 0c-1-.7-2-1.2-3-1.7l-.8-.5-1-.6C1.2-3.4.5-4 .5-5.2c0-1.9 1.5-3.5 3-4.5A8 8 0 0 1 4-10l.4-.3a10.2 10.2 0 0 0 1.2-1s-1 1.2-1.2 1.8c-.1.6-.3 1.2-.2 1.8.2.7.4 1.4.8 2 1.5 2.9 4.8 4.2 7.7 5.1L17.5.7h.4v.1c.2.1 0 1.3-.2 2.5-.3 1.6-.3 2.9-3.3 4.5C13.2 8.5 12 9 12 9.6c0 .8 1 .9.4 1l-4.8-.4a6.8 6.8 0 0 1-3.3-1.6c-.1-.1-.5-.4-.5-.6v-.1l1.5-.4a27.2 27.2 0 0 0 3-1h-.9l-1.3.2H5a7 7 0 0 1-3.5-.4c-.3-.2-.6-.5-.6-1H1a26.5 26.5 0 0 0 3.7-.4c.5 0 1.1 0 1.6-.3H2.5L1 4.3l-.6-.1C0 4.3.2 4 0 3.9V3a3 3 0 0 1-.2-1.9C1.4 1.6 3.3 3 5 2.2A16.2 16.2 0 0 1 0 0" clip-path="url(#n)" transform="matrix(1.333 0 0 -1.333 35.3 51.4)"/><path fill="#e24301" d="M0 0c-.1-.2 0 3.7-2 2.5C-2 2.5-5 1-5.5 1c-.3 0 .7 2.7.7 3.4 0 .6-1 1.7-2 .9-.8-.6-.5.4 0 .8 1.3.8 1.8 1.6 1.8 2 0 .3-.5.2-.5.2s-4.8-1-3.1-.2c3.5 1.8 3.6 4.6 3.9 4.3.6-.8.8-1.4.7-1.9.1-.2-.5-3.5-.2-3.6.3-.1 1.8.4 1.7-1.1-.2-1.6-.6-2.3-.6-2.3s2.1 2.3 2.7.7c0 0 .5-1.8.8-1.8.2.1 2.7 2.1 2.8 2C3.6 3.5 1 2.1 0 0m6-4.3C4.7-2.9 3-.4 3.4 1.1c1-1.6 1.5-1.6 2-2l-1 2.4c.3 0 .4-.2.6-.3C5.6 1 6.2.5 6.7.5a14 14 0 0 0-.7 4l.5 1.3c1 3 .9 4.6-.2 6.3-1.2 1.8-.4 5.3-.4 5.3-2.4-2.2-.8-4.9.2-6.9.6-1 .2-3-.3-4.7 0 .6-.2 1.1-.4 1.8-.6 1.5-1 2.4-1.7 3-.8.4-3 1.2-4.1 2.6-1.1 1.5-1 1.1-1.6 2.4-.5 1-.2 2.5-.2 2.5v.2l-.5-.3-.4-.3-.4-.3-.7-.7-.8-.6-.7-.7-1.4-1.3-.6-.6-.3-.3c0-.2-.2-.3-.3-.4l-.5-.6-.5-.6-.4-.6-.4-.5c0-.2-.2-.3-.3-.5l-.3-.4a25 25 0 0 0-.5-.7l.3.8.2.5.2.5.3.6.4.7.4.6.5.8.2.3.3.4.6.7.6.7.4.4.3.4.8.7.7.6.8.7a12.4 12.4 0 0 0 1.5 1v.2c-.3.6-.5 1.5-.4 2.4 0 .5.2.8.4 1l-.6-.3-1.4-.8L-6 21l-1.5-.8-.7-.5-.7-.4-.7-.4-.7-.4-1.3-.9-1.1-.7-1-.7-.4-.3a96 96 0 0 1-.4-.1l.2.3.4.4.8.8 1 1 1.3 1 1.4.9.7.4.7.4 1.5.9 1.5.7 1.4.7 1 .4c-.1.5-.3 1.1-.2 1.4 0 .7 0 1.2.5 2l.3.3-1.4-.2a86.2 86.2 0 0 1-5.5-.6l-1.6-.4-.7-.1-.7-.2a24 24 0 0 1-1.2-.4l-1-.4-.5-.2-.2-.1.1.1.5.4.9.6a10.9 10.9 0 0 0 2.6 1.2 19.9 19.9 0 0 0 5.3 1.1 35.9 35.9 0 0 0 3.2.2c.1.8.5 1.8.7 2.2l-1.2.1-1.8.2h-7.2a34 34 0 0 0-1.7-.2c-1 0-2 0-2.3-.3 1-.4-.2-1.4 2.9-2-.6-.7-3.5-1.5-6.4-.9.3-1.3 2-2 4.1-3.6-.7-.2-4.6 0-4.2-.2a17 17 0 0 1 6.3-1.4c-3-.8-5.3-2.2-5.4-3 1.9.6 3.7.2 5.4-.8-2 .4-4.4-2-6.8-3 0 0 1.4-.5 3-.3 0-.6-1.3-2-1.3-2 1 .4 1.8.4 3 .9 1.2.4.1-.8 3 .2 0 0-2.3-3.4-5.9-4-.7-.1 2.6-1.6 4.6-.2 0 0 1.3.9 1.6.6-1.4-1.6-2.6-3.7-2.4-6 2.6 2.6 3.7 2.4 3.7 2.4-1.6-1.1-2.4-2-2.6-2.6 1.7 1.2 4.4 1.2 4.6 1.6C-9.4 4.7-10.4 2-9.9.3c1 2.2 2 3.5 3.5 3.1C-8.5 2-7.9.4-7.2-.9L-5.9-3c0 2.7 3 2.6 4.4 2.6-.3-1.9.8-5.6 1.1-5.9.2-.1-1 3 1.7 5.5-.6-1.6 1-5.5 1.5-5.4-.5.6.2 3.3.7 3.7.2.2 2.2-1.8 2.4-1.7" clip-path="url(#o)" transform="matrix(1.333 0 0 -1.333 36.8 82.3)"/><path fill="#e24301" d="M0 0c0-.2-3 1.1-3 1.1-5.8 2-4-2.8-4-3 0-.2-2 1.7-2 1.4a5 5 0 0 0-.3-1.7c-.1-.2-2.2 3-2.2 2.7l-.8-3.4c-.1-.1-1 .4-1.6 1-.6.6-1.5 2.4-1.2 2.3.4-.1 1.4-.8 1.6-.6.1.2 1.2 3.5 1.4 3.3C-12 3-10.6.6-10.5.8l.4 1.9c0 .2 1.2-.8 1.2-.8 0 2.9 5.7 1.2 5.7 1.2L-6 6.7C-2.3 5.2 0 .2 0 0m3.6 11c-1 1-1.4 2.4-1.3 3 0 0 1.1-2.2 3.7-1.1-1.4 0-1.8.3-2.3 1.1 2-.5 3.1 1.6 3.5 2.2-1.8-.4-2.8-.4-4.1.2C2 17 1 18 1 19c2.7-.8 1 1 6.4 1.6.9 0-2.7.7-4.3.5.6.3 3.2 2 3 3.2-.4-.9-1.3-1.6-2.8-2-.8-.3-1.7 1-2.2 1-.7 0-1.5-1.7-1.6-1.5A50.4 50.4 0 0 0-2 24.2h-1l-1.5.1H-10l-1.5-.2c.7-.4 1.1-1.6 1.3-2.4h.6l1.2-.2a18.7 18.7 0 0 0 2.4-.4l.2-.1h.3l.6-.3c.4 0 .7-.2 1-.3l.5-.1.5-.2 1.3-.6.5-.3-.5.1A30.5 30.5 0 0 0-4 20l-1 .2-1.2.2-1.2.3-1.2.2-1.1.2h-.2c.3-.7.3-1.2.2-2.1h.3c.3-.2.6-.2 1-.3l1.8-.6 1.9-.7.9-.4.4-.2.4-.2.8-.5.8-.4 1.3-1 1-.9.7-.7.6-.8-.8.6-.3.3c-.2 0-.3.2-.5.3l-.5.3-.6.4-.7.4-.7.3-.7.4-.8.4-1.8.7-1.8.6-1.8.6-.8.2v-.6l.4-2v-1.8l.3-.3 1-.6.8-.7a18.4 18.4 0 0 0 1.7-1.4l.8-.8.7-.8.7-.7.6-.8 1.1-1.4.8-1.3.5-1.1.3-1-.5.9-.7 1-.4.5-.5.6-.6.6-.3.3-.3.4-.7.6-.7.7-1.6 1.4a1093.2 1093.2 0 0 0-2.5 2l-.6.6-.5-1.2c-.3-.6-.8-3-2.5-4.3L-14.7 5a5.9 5.9 0 0 1-2.1-2.6c-.6-1.7-.6-1.8-1-3.8-.5 1.6-1.5 4.7-.7 6.1 1 2 2.5 4.7.2 6.9 0 0 .7-3.5-.4-5.3-1-1.8-1.1-3.4-.2-6.3.4-1.2.7-1.8 1-2.1-.6-1.7-2-4.9-2-5.7 0-.3 1.8 1.9 2.7 2.7a5 5 0 0 0-.9-2.6s1.4 1.2 2 2.5c.6-1.3 0-4.3-.2-5.6a5.6 5.6 0 0 1 2.4 6.1c1.6-.7 2.2-3.8 2.2-3.8.3 1 1.2 1.7 1.2 3.1 0 .6 0 2-.5 3.3l3-5.2c-.4 3.1 0 4.6 0 4.6 2.2-5.2 5.6-4 5.6-4-3 1.2-3.4 2.8-3 4.8 4-.9-.2 2.4 5.2 0 2-1 2.3-2.4 2-2.4C3-4.3 2.9-.1.9 1c-.2.2 5.3-1 6.9 1 .2.3-2.7-1.4-6.3.9C4.1 2.8 1 4.5 1 4.5s1.4.3 2.4-.8c.2 1-1.2 3-3.5 4 1.5.2 2.9-.5 4.8-.6a4 4 0 0 1 3.9 2.4S7 8 3.6 11" clip-path="url(#p)" transform="matrix(1.333 0 0 -1.333 99.4 74.4)"/><path fill="#e24301" d="M0 0c-1.6-.3-4.3-1-5.9-1.7a21 21 0 0 0-5.3 1.6c-4.2 1.5-7-2.7-7-2.7a5.1 5.1 0 0 0 3.9 1.6c-.5-.9-2.7-.4-3-2.3 1.3 1.3 4.3.4 4.3.4-2.1.1-2.7-1-2.8-2 0 0 1 1.5 2.8 1 .5-.2.6-2-1-3.7.3-.2 3.3 1.4 3.3 3 .8-.5-1-4.4 1.7-5.5 0 0-.8 3.2 1.1 3.8.4-2.4 2.3-3.8 2.2 0 1.5.7 3.3-1.4 4-1.4 0 0-1.6 2.6-1 3.7a5 5 0 0 0 1.6-2.4S-.7-5-1.2-4c1.1-.5 2.6-2 2.7-2.8 0 0 .9 2.9-1 3.5 1.2.4 3 0 4-.3.3 0 .8-.4.8-.3-.2.7-1.5 1.4-3 1.2 0 0 1.3.7 2.7 0A4 4 0 0 1 3.4-1a7 7 0 0 0 3.3-2S3.9 1.2 0-.1" clip-path="url(#q)" transform="matrix(1.333 0 0 -1.333 67.8 88.1)"/><path fill="#fff" d="M0 0h.1c.1-.7.2-1.8.7-2.1.2.5.5 1.3 1.1 2 .2 0 .3.2.5.3.7 0 .8-.7 1.2-1 .7-.6 1.5-1 2.6-1.1-.4.4-.7 1-1.1 1.7a8.8 8.8 0 0 1-1.5 1.7 5.4 5.4 0 0 1-2 .9h-.1A6.4 6.4 0 0 1-4.8 0c-1.4-2-.7-3.2-1.6-4.5l-.2-.2s2.2 1.3 4 1.6C-3-1.3-1.8-.4 0 0" clip-path="url(#r)" transform="matrix(1.333 0 0 -1.333 43.8 33.9)"/><path fill="#fff" d="M0 0c1-3-.8-4.9-.9-7.3 2.2.7 5.7 4.2 4.6 5.7C3.6-1.4 2.4.1 0 0" clip-path="url(#s)" transform="matrix(1.333 0 0 -1.333 67.5 55.3)"/><path fill="#fff" d="M0 0c-1.2-1.5 2.4-5 4.5-5.7 0 2.4-1.7 4.4-.8 7.3C1.2 1.6 0 0 0 0" clip-path="url(#t)" transform="matrix(1.333 0 0 -1.333 47.2 57.4)"/><path fill="#e24301" d="M0 0c-.6-.3-1.2-.6-1.7-1.1 0 0-.8-1-1.6-1.3-.7-.3-2.9 0-4.7-1.8-1.2-1-2.4-1-2.6-1-.6 0-1.1.4-1.5 1-.6 1.2.7 2 .7 2s-1.5.2-2.7-1.4l-.7-1-1-1.2c-1-1.2-2-1.2-2-1.2s-.5 2-1.2 2l-.6-.2s-2-.9-2.7-1V-5c-.3.1-.8-.2-1-.3-.1.7 1 1.4 1 1.4s-.3.6-1 .5c-1 0-1.6-.8-1.6-.8l-1.2-1.3a.6.6 0 0 0-.6-.2c-.5.2-2 .9-2.8 1-.5 0-1.8.1-1.3-.8.1-.2.8-2 .7-2.4 0-.2 0 .5-.8 1.7-1 1.6-.4 2.2-.4 2.2-1 0-2.2-1-2.2-1.1l.4-2.5c-.2.7-1 2.2-1 2.2-1.8 3-5 3.4-4.8 3.2.2-.3 1.7-3.2-.2-3.8-.3 0-.6-.2-.8.4 0 0-.2 2.7-3-1h-.1c-.4-.6-.9-.8-1-.9-.8-.2-1.9-.2-2.9 1.2a4.2 4.2 0 0 1-3.9 1.7c-.7 0-3 .6-3.7.8-.8.3-3.2 2.8-5 3.2l-.5.3a17.7 17.7 0 0 1-7.6 3.1c-1 0-.2-.7.5-1.3.5-1.1 1.2-2.8 1.2-3.6 0-1 1.7-2.2 1.7-2.9.1-.6-.1-2.2-2-5l-.2-3.4c-.6-3.8-4.1-.3-.1-3.4l-1.1-.8c.3-.3 1.7.1 1.7-.2.4-1.2-.6-2.5-1.7-3.1.1-.2 1 0 1.7.3 1.5 1 2.8.2 2.8.2-.9 0-1.4-.4-1.8-.8-.6-1-1-1.9.1-2.3.4-.1 1-.2 1.2-.5 1-1.1 2-1 2-1s-.7 2.2 3.8 6.7c0 .3-1.3.6-2 .5a5.8 5.8 0 0 1-.6 0c-.7 1.1.4 2 1 3l-.5.1c-.5.1-1 .3-1.2 0 0 .5.1.8.3 1 .1.2.3.4.3.8l-.1.1-.9 1.8v.8l-.5 1.7c-.3 1.8 3.7-2.4 6.6-4.8.9-.7 2-2.2 2.8-3-.9-1.5.2-3.9-2.6-4.2-1.5-.1-4.7-1.8-4.4-4.5v-.1l1.4.1 1.7.2h1.3c3.4 1.1 5.2 5.1 6 7.6.3 1.2-1.4 1.6-2 2.2v.2c0 .2 0 .3.2.4 2.2 1.3 4.8 1 7.2.1 1.4.6 2.9 1.8 3.7 4 0 0-.5-2.9-2.6-4.4.6-.2 2-.4 2 .2 0 0 0-.8.2-1.4a24.6 24.6 0 0 0 4.6-3.8c.5.1.9.5 1.2 1v.1c2.3 2.5 1 8.2 2 3.5.6-2.8-1-4.5-1.7-5.4-.1-.2.4-.4.5-.4 1 .2 2.9.8 5.6.2 0 0 1.4.2.8.5-.8 1-2 5.3-1.6 7.4.1.5.2-5.3 2.9-6.1a27 27 0 0 0 4.1 3.2l.2 1.4c0-.5 1.2-.4 2-.2h.1c-3.5 1.1-4.3 4-4.3 4 1.3-2.2 3.8-3 5.8-3.4 4.4 1.4 7-.5 7-.5s.3-.3-1.2-.7c1-1.7.8-4.2 3.2-8.6.6-1.1 1.8-1.8 2.5-1.8H-7a21 21 0 0 0 3.3-.5c-3.1 5.9-4.6 6-5.7 7.5 0 0-.7.6-1.4 3 0 .3.2 1 .8 1.3 1.4.8 3 1.3 4.5 2.6C-4.1-10.3-1-8-1-8s.6-1.3.4-2.3V-13s-.7-2-2.2-1.4c-1.5.6-1-1.2-.5-2 .3-.3-1.4-.4-1.4-.4s1.6-1 1-3.2c-1.3 3.7-4 2.9-4 2.9s3.6-4.7 4.2-6l.1-.2.4-.8 1.2-3.1s.3 2.9 1.9 1.8c1.1-.6 1 2.3-.3 2.8-1.3.9-.6 3-.6 3 0-1.2 1-1.6 1.7-2 .3-.1 1.4-.2 1.2.2-1 2 .7 1.8.7 1.8-1.3.8-1.4 1.1-1.4 1.5.7-.5 1.4.3 1.4.3-.6 0-1.3 1.3-1.3 1.9h.1c2 0 2.8-2.1 1.5 1.2-.5 1.2-.6 3.8-.7 4.7-.2 1-.3.8-.6 1.8 1.1 3.8 1.9 3 2.9 5 2.5 4.9 2.8 4.7 2.8 4.7S5.8 3.2 0 0" clip-path="url(#u)" transform="matrix(1.333 0 0 -1.333 101.3 6.7)"/></svg>